<svg id="Capa_1" enable-background="new 0 0 512 512" height="512" viewBox="0 0 512 512" width="512" xmlns="http://www.w3.org/2000/svg"><g><path d="m512 194.206-256-118.057-256 118.057v23.402l87.611 40.402c-12.027 24.695-18.784 52.41-18.784 81.675v9.589l187.173 86.577 187.173-86.577v-9.589c0-29.265-6.757-56.979-18.784-81.675l57.611-26.567v155.553h30zm-256 208.59-156.892-72.57c1.269-21.294 6.807-41.454 15.752-59.649l141.14 65.087 141.14-65.088c8.945 18.195 14.483 38.355 15.752 59.649zm0-100.169-209.736-96.72 209.736-96.721 209.736 96.721z"/></g></svg>