<svg id="Capa_1" enable-background="new 0 0 512 512" height="512" viewBox="0 0 512 512" width="512" xmlns="http://www.w3.org/2000/svg"><g><path d="m243.5 422h-60c-8.284 0-15 6.716-15 15s6.716 15 15 15h60c8.284 0 15-6.716 15-15s-6.716-15-15-15z"/><path d="m193.5 90h40c8.284 0 15-6.716 15-15s-6.716-15-15-15h-40c-8.284 0-15 6.716-15 15s6.716 15 15 15z"/><circle cx="143.5" cy="75" r="15"/><path d="m438.5 251h-6.619c-8.774-15.566-13.381-33.062-13.381-51.056v-23.944c0-30.678-21.37-56.442-50-63.234v-57.766c0-30.327-24.673-55-55-55h-200c-30.327 0-55 24.673-55 55v402c0 30.327 24.673 55 55 55h200c30.327 0 55-24.673 55-55v-118.58c17.459-6.192 30-22.865 30-42.42v-15h40c8.284 0 15-6.716 15-15s-6.716-15-15-15zm-100 206c0 13.785-11.215 25-25 25h-200c-13.785 0-25-11.215-25-25v-402c0-13.785 11.215-25 25-25h200c13.785 0 25 11.215 25 25v57.766c-28.63 6.792-50 32.556-50 63.234v23.944c0 17.994-4.607 35.49-13.381 51.056h-6.619c-8.284 0-15 6.716-15 15s6.716 15 15 15h40v15c0 19.555 12.541 36.228 30 42.42zm30-161c0 8.271-6.729 15-15 15s-15-6.729-15-15v-15h30zm-60.107-45c6.643-16.104 10.107-33.39 10.107-51.056v-23.944c0-19.299 15.701-35 35-35s35 15.701 35 35v23.944c0 17.665 3.464 34.952 10.107 51.056z"/></g></svg>