<svg id="Capa_1" enable-background="new 0 0 512 512" height="512" viewBox="0 0 512 512" width="512" xmlns="http://www.w3.org/2000/svg"><g><path d="m57.855 447h197.23c-5.819 25.67-5.23 46.331-5.23 65h-147c-24.81 0-45-20.19-45-45z"/><path d="m343.855 45v223.79l-29.76-30.08c-18.394-18.394-48.13-18.349-66.47-.01-18.436 18.415-18.27 48.106-.12 66.36l57.46 59.74c-12.46 9.29-28.6 25.51-40.18 52.2h-206.93v-372c0-24.81 20.19-45 45-45h196c24.81 0 45 20.19 45 45z"/><path d="m451.515 360.81-27.95 139.14c-1.4 6.93-7.49 12.05-14.71 12.05h-129c0-18.73-.69-39.84 6.25-65 4.26-15.45 11.01-30.28 21.09-42.83 12.87-15.99 25.96-21.71 27-22.15 9.995-3.575 13.212-16.408 5.47-24.42l-70.63-73.43c-11.06-11.05-3.18-29.23 11.82-29.23 4.54 0 8.81 1.77 11.97 4.93 0 0 22.36 22.94 71.79 72.37 5.88 5.88 15.39 5.82 21.21 0 5.86-5.86 5.86-15.35 0-21.21l-11.97-11.97v-99.28c46.62 46.62 45.28 45.06 50.04 50.73 24.68 29.35 35.73 69.83 27.62 110.3z"/></g></svg>